<svg xmlns="http://www.w3.org/2000/svg" width="1200" height="800" viewBox="0 0 1200 800">
  <defs>
    <linearGradient id="bg" x1="0" y1="0" x2="0" y2="1">
      <stop offset="0" stop-color="#e2e8f0"/>
      <stop offset="1" stop-color="#f8fafc"/>
    </linearGradient>
    <linearGradient id="shade" x1="0" y1="0" x2="1" y2="0">
      <stop offset="0" stop-color="#111827"/>
      <stop offset="1" stop-color="#374151"/>
    </linearGradient>
    <filter id="shadow" x="-20%" y="-20%" width="140%" height="140%">
      <feDropShadow dx="0" dy="20" stdDeviation="22" flood-color="#000" flood-opacity="0.25"/>
    </filter>
  </defs>
  <rect width="1200" height="800" fill="url(#bg)"/>
  <rect x="170" y="130" width="860" height="540" rx="44" fill="#ffffff" filter="url(#shadow)"/>
  <rect x="250" y="200" width="700" height="420" rx="28" fill="#f1f5f9"/>
  <rect x="320" y="160" width="560" height="18" rx="9" fill="#0f172a" opacity="0.85"/>
  <rect x="420" y="200" width="360" height="420" rx="26" fill="url(#shade)"/>
  <path d="M440 200v420M470 200v420M500 200v420M530 200v420M560 200v420M590 200v420M620 200v420M650 200v420M680 200v420M710 200v420M740 200v420M770 200v420" stroke="rgba(255,255,255,0.10)" stroke-width="6"/>
  <rect x="320" y="250" width="70" height="280" rx="20" fill="#ffffff" opacity="0.7"/>
  <rect x="810" y="250" width="70" height="280" rx="20" fill="#ffffff" opacity="0.7"/>
</svg>
