<svg xmlns="http://www.w3.org/2000/svg" width="1200" height="800" viewBox="0 0 1200 800">
  <defs>
    <linearGradient id="bg" x1="0" y1="0" x2="1" y2="1">
      <stop offset="0" stop-color="#fff7ed"/>
      <stop offset="1" stop-color="#fffbeb"/>
    </linearGradient>
    <linearGradient id="fabric" x1="0" y1="0" x2="1" y2="0">
      <stop offset="0" stop-color="#fef3c7"/>
      <stop offset="1" stop-color="#fde68a"/>
    </linearGradient>
    <filter id="shadow" x="-20%" y="-20%" width="140%" height="140%">
      <feDropShadow dx="0" dy="20" stdDeviation="22" flood-color="#000" flood-opacity="0.22"/>
    </filter>
  </defs>
  <rect width="1200" height="800" fill="url(#bg)"/>
  <rect x="160" y="120" width="880" height="560" rx="44" fill="#ffffff" filter="url(#shadow)"/>
  <rect x="250" y="190" width="700" height="430" rx="28" fill="#fff7ed"/>
  <rect x="300" y="165" width="600" height="20" rx="10" fill="#111827" opacity="0.85"/>
  <path d="M320 210c90 60 180 60 270 0s180-60 270 0" fill="none" stroke="rgba(17,24,39,0.12)" stroke-width="10" stroke-linecap="round"/>
  <path d="M330 230v390c0 0 50-40 100 0s100 40 150 0 100-40 150 0 100 40 150 0V230" fill="url(#fabric)" opacity="0.95"/>
  <path d="M330 260c60 40 120 40 180 0s120-40 180 0 120 40 180 0" fill="none" stroke="rgba(17,24,39,0.10)" stroke-width="8" stroke-linecap="round"/>
</svg>
