<svg xmlns="http://www.w3.org/2000/svg" width="1200" height="800" viewBox="0 0 1200 800">
  <defs>
    <linearGradient id="bg" x1="0" y1="0" x2="1" y2="1">
      <stop offset="0" stop-color="#ecfdf5"/>
      <stop offset="1" stop-color="#f0f9ff"/>
    </linearGradient>
    <linearGradient id="fabric" x1="0" y1="0" x2="1" y2="0">
      <stop offset="0" stop-color="#bbf7d0"/>
      <stop offset="1" stop-color="#86efac"/>
    </linearGradient>
    <filter id="shadow" x="-20%" y="-20%" width="140%" height="140%">
      <feDropShadow dx="0" dy="20" stdDeviation="22" flood-color="#000" flood-opacity="0.20"/>
    </filter>
  </defs>
  <rect width="1200" height="800" fill="url(#bg)"/>
  <rect x="160" y="120" width="880" height="560" rx="44" fill="#ffffff" filter="url(#shadow)"/>
  <rect x="260" y="190" width="680" height="440" rx="28" fill="#f8fafc"/>
  <rect x="320" y="160" width="560" height="18" rx="9" fill="#0f172a" opacity="0.85"/>
  <path d="M330 220v410c0 0 55-60 110 0s110 60 165 0 110-60 165 0 110 60 165 0V220" fill="url(#fabric)" opacity="0.92"/>
  <path d="M355 260c55 45 110 45 165 0s110-45 165 0 110 45 165 0" fill="none" stroke="rgba(15,23,42,0.08)" stroke-width="8" stroke-linecap="round"/>
</svg>
