<svg xmlns="http://www.w3.org/2000/svg" width="1200" height="800" viewBox="0 0 1200 800">
  <defs>
    <linearGradient id="bg" x1="0" y1="0" x2="1" y2="1">
      <stop offset="0" stop-color="#ecfeff"/>
      <stop offset="1" stop-color="#f0fdf4"/>
    </linearGradient>
    <linearGradient id="roller" x1="0" y1="0" x2="0" y2="1">
      <stop offset="0" stop-color="#0ea5e9"/>
      <stop offset="1" stop-color="#0284c7"/>
    </linearGradient>
    <filter id="shadow" x="-20%" y="-20%" width="140%" height="140%">
      <feDropShadow dx="0" dy="20" stdDeviation="22" flood-color="#000" flood-opacity="0.22"/>
    </filter>
  </defs>
  <rect width="1200" height="800" fill="url(#bg)"/>
  <rect x="160" y="120" width="880" height="560" rx="44" fill="#ffffff" filter="url(#shadow)"/>
  <rect x="260" y="185" width="680" height="440" rx="28" fill="#f8fafc"/>
  <rect x="320" y="160" width="560" height="18" rx="9" fill="#0f172a" opacity="0.85"/>
  <rect x="390" y="210" width="420" height="360" rx="24" fill="url(#roller)"/>
  <path d="M410 230h380M410 270h380M410 310h380M410 350h380M410 390h380M410 430h380M410 470h380M410 510h380" stroke="rgba(255,255,255,0.14)" stroke-width="6" stroke-linecap="round"/>
  <circle cx="845" cy="210" r="10" fill="#0f172a" opacity="0.55"/>
  <path d="M845 220v180" stroke="#0f172a" stroke-width="6" opacity="0.45" stroke-linecap="round"/>
</svg>
