<svg xmlns="http://www.w3.org/2000/svg" width="1200" height="800" viewBox="0 0 1200 800">
  <defs>
    <linearGradient id="bg" x1="0" y1="0" x2="1" y2="1">
      <stop offset="0" stop-color="#fdf2f8"/>
      <stop offset="1" stop-color="#eef2ff"/>
    </linearGradient>
    <linearGradient id="sheer" x1="0" y1="0" x2="1" y2="0">
      <stop offset="0" stop-color="rgba(255,255,255,0.88)"/>
      <stop offset="1" stop-color="rgba(255,255,255,0.62)"/>
    </linearGradient>
    <filter id="shadow" x="-20%" y="-20%" width="140%" height="140%">
      <feDropShadow dx="0" dy="20" stdDeviation="22" flood-color="#000" flood-opacity="0.20"/>
    </filter>
  </defs>
  <rect width="1200" height="800" fill="url(#bg)"/>
  <rect x="150" y="120" width="900" height="560" rx="44" fill="#ffffff" filter="url(#shadow)"/>
  <rect x="260" y="190" width="680" height="440" rx="28" fill="#f1f5f9"/>
  <rect x="320" y="160" width="560" height="18" rx="9" fill="#0f172a" opacity="0.85"/>
  <path d="M340 210v420c0 0 70-70 140 0s140 70 210 0 140-70 210 0V210" fill="url(#sheer)"/>
  <path d="M360 240c70 60 140 60 210 0s140-60 210 0 140 60 210 0" fill="none" stroke="rgba(15,23,42,0.08)" stroke-width="8" stroke-linecap="round"/>
  <path d="M360 560c70 60 140 60 210 0s140-60 210 0 140 60 210 0" fill="none" stroke="rgba(15,23,42,0.06)" stroke-width="8" stroke-linecap="round"/>
</svg>
