<svg xmlns="http://www.w3.org/2000/svg" width="1200" height="800" viewBox="0 0 1200 800">
  <defs>
    <linearGradient id="bg" x1="0" y1="0" x2="1" y2="1">
      <stop offset="0" stop-color="#f8fafc"/>
      <stop offset="1" stop-color="#eef2ff"/>
    </linearGradient>
    <linearGradient id="roller" x1="0" y1="0" x2="0" y2="1">
      <stop offset="0" stop-color="#111827"/>
      <stop offset="1" stop-color="#334155"/>
    </linearGradient>
    <filter id="shadow" x="-20%" y="-20%" width="140%" height="140%">
      <feDropShadow dx="0" dy="20" stdDeviation="22" flood-color="#000" flood-opacity="0.22"/>
    </filter>
  </defs>
  <rect width="1200" height="800" fill="url(#bg)"/>
  <rect x="160" y="120" width="880" height="560" rx="44" fill="#ffffff" filter="url(#shadow)"/>
  <rect x="260" y="190" width="680" height="440" rx="28" fill="#f1f5f9"/>
  <rect x="320" y="160" width="560" height="18" rx="9" fill="#0f172a" opacity="0.85"/>
  <rect x="410" y="210" width="380" height="360" rx="24" fill="url(#roller)"/>
  <path d="M430 235h340M430 275h340M430 315h340M430 355h340M430 395h340M430 435h340M430 475h340M430 515h340" stroke="rgba(255,255,255,0.10)" stroke-width="6" stroke-linecap="round"/>
  <path d="M820 240c0 0 40 40 0 80s0 80 0 120" fill="none" stroke="rgba(15,23,42,0.35)" stroke-width="10" stroke-linecap="round"/>
</svg>
